<svg width="24" height="28" viewBox="0 0 24 28" fill="none" xmlns="http://www.w3.org/2000/svg">
<g clip-path="url(#clip0_719_836)">
<path d="M17.8654 27.2831C17.3371 27.141 16.7874 27.0507 16.2831 26.8477C13.1346 25.5822 11.8237 21.6747 13.5834 18.7815C15.1325 16.2329 16.7196 13.7067 18.2896 11.1672C18.3168 11.1228 18.3483 11.0806 18.3932 11.0144C18.4466 11.0897 18.4968 11.148 18.5363 11.2115C20.0791 13.7044 21.6207 16.1973 23.1613 18.6902C25.3013 22.1656 23.1325 26.703 19.0817 27.2372C19.0307 27.2484 18.9806 27.264 18.9322 27.2836L17.8654 27.2831Z" fill="white"/>
<path d="M5.59774 7.81195C5.66024 7.90437 5.71046 7.97221 5.758 8.04646C7.27687 10.5002 8.79504 12.954 10.3125 15.4081C12.454 18.8803 10.5139 23.2292 6.50319 23.9551C3.60309 24.484 0.640478 22.4268 0.104153 19.5214C-0.165434 18.0587 0.0895523 16.696 0.869111 15.4332C2.39155 12.9717 3.91523 10.5107 5.44016 8.0502C5.48503 7.97701 5.53524 7.90704 5.59774 7.81195Z" fill="white"/>
<path d="M13.61 0L16.0972 4.11325C16.4097 4.62981 16.734 5.13996 17.0304 5.6656C17.7949 7.02083 17.8269 8.40278 17.0304 9.74252C16.2425 11.0705 15.0278 11.7302 13.4808 11.7067C10.4893 11.6613 8.61965 8.35684 10.1277 5.74359C11.2233 3.84455 12.3878 1.98504 13.5219 0.108973C13.5492 0.0709923 13.5786 0.0346089 13.61 0Z" fill="white"/>
</g>
<defs>
<clipPath id="clip0_719_836">
<rect width="24" height="27.2831" fill="white"/>
</clipPath>
</defs>
</svg>
