<svg width="42" height="42" viewBox="0 0 42 42" fill="none" xmlns="http://www.w3.org/2000/svg">
<rect width="42" height="42" rx="8" fill="#444444"/>
<g clip-path="url(#clip0_719_834)">
<path d="M26.8654 34.2831C26.3371 34.141 25.7874 34.0507 25.2831 33.8477C22.1346 32.5822 20.8237 28.6747 22.5834 25.7815C24.1325 23.2329 25.7196 20.7067 27.2896 18.1672C27.3168 18.1228 27.3483 18.0806 27.3932 18.0144C27.4466 18.0897 27.4968 18.148 27.5363 18.2115C29.0791 20.7044 30.6207 23.1973 32.1613 25.6902C34.3013 29.1656 32.1325 33.703 28.0817 34.2372C28.0307 34.2484 27.9806 34.264 27.9322 34.2836L26.8654 34.2831Z" fill="white"/>
<path d="M14.5977 14.812C14.6602 14.9044 14.7105 14.9722 14.758 15.0465C16.2769 17.5002 17.795 19.954 19.3125 22.4081C21.454 25.8803 19.5139 30.2292 15.5032 30.9551C12.6031 31.484 9.64048 29.4268 9.10415 26.5214C8.83457 25.0587 9.08955 23.696 9.86911 22.4332C11.3915 19.9717 12.9152 17.5107 14.4402 15.0502C14.485 14.977 14.5352 14.907 14.5977 14.812Z" fill="white"/>
<path d="M22.61 7L25.0972 11.1132C25.4097 11.6298 25.734 12.14 26.0304 12.6656C26.7949 14.0208 26.8269 15.4028 26.0304 16.7425C25.2425 18.0705 24.0278 18.7302 22.4808 18.7067C19.4893 18.6613 17.6197 15.3568 19.1277 12.7436C20.2233 10.8446 21.3878 8.98504 22.5219 7.10897C22.5492 7.07099 22.5786 7.03461 22.61 7Z" fill="white"/>
</g>
<defs>
<clipPath id="clip0_719_834">
<rect width="24" height="27.2831" fill="white" transform="translate(9 7)"/>
</clipPath>
</defs>
</svg>
