
<svg width="19" height="28" viewBox="0 0 19 28" fill="none" xmlns="http://www.w3.org/2000/svg">
<path d="M5.66918 27C5.12345 26.719 5.00767 26.4692 5.15527 25.874C5.97454 22.5689 6.79381 19.2641 7.61308 15.9595C7.63339 15.8796 7.64829 15.7983 7.67334 15.6819H7.35037C5.20063 15.6819 3.05089 15.6629 0.901155 15.6941C0.268759 15.7035 -0.197751 15.2072 0.0839155 14.4889C1.75857 10.2097 3.41833 5.92443 5.06319 1.63307C5.181 1.32771 5.36313 1.11172 5.67256 1H13.0338C13.6249 1.32635 13.7271 1.63781 13.4502 2.2675L10.6613 8.59688C10.6214 8.68828 10.5862 8.78172 10.5374 8.90156C10.6464 8.90698 10.7344 8.9151 10.8225 8.9151C12.6835 8.9151 14.5448 8.9151 16.4064 8.9151C16.8431 8.9151 17.1281 9.11823 17.225 9.4913C17.2961 9.76214 17.1938 9.9849 17.0516 10.2056C15.8117 12.1317 14.5735 14.0589 13.3371 15.9872C11.0928 19.4805 8.85034 22.9738 6.60964 26.4671C6.45933 26.7021 6.28735 26.8964 6.02532 27H5.66918Z" fill="white"/>
</svg>
