<svg width="14" height="28" viewBox="0 0 14 28" fill="none" xmlns="http://www.w3.org/2000/svg">
<g clip-path="url(#clip0_719_827)">
<path d="M6.44647 28C5.78621 27.8397 5.09376 27.7575 4.4698 27.5055C2.0363 26.524 0.541132 24.722 0.106896 22.1282C-0.29378 19.731 0.435655 17.6687 2.15753 15.9592C2.21857 15.9004 2.26602 15.829 2.29655 15.75C2.32707 15.671 2.33994 15.5862 2.33424 15.5017C2.33013 11.9401 2.32853 8.37673 2.32944 4.81152C2.32944 3.16772 2.96915 1.84584 4.29378 0.867092C7.02522 -1.15204 11.1155 0.55614 11.5881 3.91428C11.6335 4.23855 11.6564 4.56558 11.6566 4.89302C11.6607 8.42033 11.6607 11.9474 11.6566 15.4743C11.6522 15.5721 11.6693 15.6697 11.7069 15.7601C11.7444 15.8505 11.8014 15.9316 11.8737 15.9975C14.4812 18.5831 14.7196 22.5679 12.4066 25.4247C11.2265 26.8815 9.67242 27.713 7.80602 27.9486C7.71698 27.9596 7.62931 27.9829 7.54028 28H6.44647ZM9.33064 10.6888C9.33064 8.84909 9.33064 7.00895 9.33064 5.16836C9.33064 4.91357 9.31832 4.65878 9.29708 4.40468C9.16421 2.84581 7.39576 1.8609 5.99785 2.56773C5.06088 3.04101 4.65747 3.83072 4.65815 4.85535C4.65815 8.51827 4.63829 12.1839 4.67528 15.8428C4.68213 16.5482 4.49446 17.0187 3.95201 17.4865C2.58218 18.6708 2.06301 20.2166 2.44931 21.9892C2.98833 24.4617 5.228 25.9617 7.73616 25.5987C10.7792 25.1596 12.5717 21.7152 11.1991 18.9666C10.8012 18.1701 10.1916 17.5687 9.5279 17.0078C9.46097 16.9558 9.40776 16.8883 9.3729 16.811C9.33805 16.7338 9.3226 16.6492 9.32791 16.5647C9.33339 14.6065 9.33064 12.6476 9.33064 10.6888Z" fill="white"/>
<path d="M5.83068 9.34634H8.15939V9.67168C8.15939 12.2502 8.15779 14.8286 8.1546 17.4071C8.1546 17.6174 8.20802 17.7208 8.41075 17.8112C9.79428 18.4276 10.6292 19.8502 10.484 21.3097C10.4166 22.055 10.1127 22.7591 9.61677 23.3194C9.12081 23.8797 8.45873 24.2667 7.72721 24.4241C6.0204 24.8069 4.27387 23.8159 3.68621 22.1323C3.11431 20.4926 3.86771 18.631 5.43822 17.8859C5.75328 17.7365 5.84301 17.5735 5.84095 17.24C5.82588 14.725 5.83273 12.2107 5.83273 9.69565L5.83068 9.34634Z" fill="white"/>
</g>
<defs>
<clipPath id="clip0_719_827">
<rect width="13.9969" height="28" fill="white"/>
</clipPath>
</defs>
</svg>
